<svg width="124" height="105" viewBox="0 0 124 105" fill="none" xmlns="http://www.w3.org/2000/svg">
<mask id="mask0_6_297" style="mask-type:alpha" maskUnits="userSpaceOnUse" x="0" y="0" width="124" height="105">
<path d="M0 60.4584V104.765H23.6768L2.36768 55.4202L0 60.4584Z" fill="#3157A2"/>
<path d="M0 46.1588V0H23.6768L0 46.1588Z" fill="#3157A2"/>
<path d="M32.4076 50.2339L62.3735 0H115.451C109.411 0 103.899 0.688931 98.9161 2.06679C93.9834 3.44465 89.554 5.34515 85.6279 7.76829C81.7018 10.1914 78.2791 13.0659 75.3597 16.3918C72.4404 19.7177 70.0243 23.3286 68.1116 27.2246C66.1989 31.1207 64.7644 35.2305 63.8081 39.5541C62.8517 43.8303 62.3735 48.1539 62.3735 52.525C62.3735 56.9437 62.751 61.2911 63.5061 65.5672C64.3114 69.8433 65.5698 73.9294 67.2811 77.8254C69.0428 81.6739 71.2827 85.2611 74.0007 88.587C76.7691 91.8654 80.1163 94.7161 84.0424 97.1393C88.0188 99.5149 92.5992 101.368 97.7836 102.698C102.968 104.076 108.857 104.765 115.451 104.765H62.3735L32.4076 50.2339Z" fill="#3157A2"/>
<path d="M116.642 104.757C116.527 104.762 116.412 104.765 116.297 104.765H115.451C115.85 104.765 116.247 104.762 116.642 104.757Z" fill="#3157A2"/>
<path d="M124 22.4165V82.4291C123.845 82.5129 123.688 82.5938 123.529 82.6717C121.164 83.8595 118.471 84.4534 115.451 84.4534C112.431 84.4534 109.713 83.8595 107.297 82.6717C104.931 81.4839 102.918 79.6071 101.257 77.0415C99.646 74.4758 98.3876 71.1737 97.4816 67.1351C96.6259 63.0966 96.1981 58.2265 96.1981 52.525C96.1981 46.8235 96.6259 41.9535 97.4816 37.915C98.3876 33.8289 99.646 30.503 101.257 27.9373C102.918 25.3241 104.931 23.3999 107.297 22.1646C109.713 20.9292 112.431 20.3116 115.451 20.3116C118.471 20.3116 121.164 20.9292 123.529 22.1646C123.688 22.2456 123.845 22.3296 124 22.4165Z" fill="#3157A2"/>
<path d="M116.688 0.00975176C116.278 0.00325059 115.866 0 115.451 0H116.297C116.428 0 116.558 0.00327639 116.688 0.00975176Z" fill="#3157A2"/>
</mask>
<g mask="url(#mask0_6_297)">
<rect width="123.253" height="104.765" rx="3" fill="white"/>
</g>
</svg>